<mxfile host="app.diagrams.net" modified="2024-02-29T20:48:06.115Z" agent="Mozilla/5.0 (Windows NT 10.0; Win64; x64) AppleWebKit/537.36 (KHTML, like Gecko) Chrome/122.0.0.0 Safari/537.36 Edg/122.0.0.0" version="24.0.0" etag="G6NLYA5Nx9G-JIsi37gJ" type="github">
  <diagram name="Page-1" id="j8MX3WsK75VBLj1zqQFF">
    <mxGraphModel>
      <root>
        <mxCell id="0" />
        <mxCell id="1" parent="0" />
      </root>
    </mxGraphModel>
  </diagram>
</mxfile>
